<?xml version="1.0" ?>
<xmeml version="4">
    <project>
        <name>Kdenlive imported timeline</name>
        <children>
            <sequence id="sequence-1">
                <name>Kdenlive imported timeline</name>
                <duration>817</duration>
                <rate>
                    <timebase>30</timebase>
                    <ntsc>TRUE</ntsc>
                </rate>
                <media>
                    <video>
                        <track>
                            <clipitem frameBlend="FALSE" id="clipitem-5">
                                <file id="file-5">
                                    <name>Screenshot from 2018-08-12 13-32-32-2-clipped.ppm</name>
                                    <pathurl>/home/andrewdo/video/resources/images/bytelibrary-screenshots/Screenshot from 2018-08-12 13-32-32-2-clipped.ppm</pathurl>
                                    <rate>
                                        <timebase>30</timebase>
                                        <ntsc>TRUE</ntsc>
                                    </rate>
                                    <duration>149</duration>
                                    <timecode>
                                        <rate>
                                            <timebase>30</timebase>
                                            <ntsc>TRUE</ntsc>
                                        </rate>
                                        <string>00:00:00:00</string>
                                        <frame>0</frame>
                                        <displayformat>NDF</displayformat>
                                    </timecode>
                                    <media>
                                        <video/>
                                        <audio/>
                                    </media>
                                </file>
                                <name/>
                                <rate>
                                    <timebase>30</timebase>
                                    <ntsc>TRUE</ntsc>
                                </rate>
                                <rate>
                                    <timebase>30</timebase>
                                    <ntsc>TRUE</ntsc>
                                </rate>
                                <duration>117</duration>
                                <start>0</start>
                                <end>117</end>
                                <in>0</in>
                                <out>117</out>
                            </clipitem>
                            <clipitem frameBlend="FALSE" id="clipitem-6">
                                <file id="file-6">
                                    <name>Screenshot from 2018-08-12 13-32-42-2-clipped.ppm</name>
                                    <pathurl>/home/andrewdo/video/resources/images/bytelibrary-screenshots/Screenshot from 2018-08-12 13-32-42-2-clipped.ppm</pathurl>
                                    <rate>
                                        <timebase>30</timebase>
                                        <ntsc>TRUE</ntsc>
                                    </rate>
                                    <duration>149</duration>
                                    <timecode>
                                        <rate>
                                            <timebase>30</timebase>
                                            <ntsc>TRUE</ntsc>
                                        </rate>
                                        <string>00:00:00:00</string>
                                        <frame>0</frame>
                                        <displayformat>NDF</displayformat>
                                    </timecode>
                                    <media>
                                        <video/>
                                        <audio/>
                                    </media>
                                </file>
                                <name/>
                                <rate>
                                    <timebase>30</timebase>
                                    <ntsc>TRUE</ntsc>
                                </rate>
                                <rate>
                                    <timebase>30</timebase>
                                    <ntsc>TRUE</ntsc>
                                </rate>
                                <duration>37</duration>
                                <start>117</start>
                                <end>154</end>
                                <in>0</in>
                                <out>37</out>
                            </clipitem>
                            <clipitem frameBlend="FALSE" id="clipitem-7">
                                <file id="file-7">
                                    <name>Screenshot from 2018-08-12 13-34-07-2-clipped.ppm</name>
                                    <pathurl>/home/andrewdo/video/resources/images/bytelibrary-screenshots/Screenshot from 2018-08-12 13-34-07-2-clipped.ppm</pathurl>
                                    <rate>
                                        <timebase>30</timebase>
                                        <ntsc>TRUE</ntsc>
                                    </rate>
                                    <duration>149</duration>
                                    <timecode>
                                        <rate>
                                            <timebase>30</timebase>
                                            <ntsc>TRUE</ntsc>
                                        </rate>
                                        <string>00:00:00:00</string>
                                        <frame>0</frame>
                                        <displayformat>NDF</displayformat>
                                    </timecode>
                                    <media>
                                        <video/>
                                        <audio/>
                                    </media>
                                </file>
                                <name/>
                                <rate>
                                    <timebase>30</timebase>
                                    <ntsc>TRUE</ntsc>
                                </rate>
                                <rate>
                                    <timebase>30</timebase>
                                    <ntsc>TRUE</ntsc>
                                </rate>
                                <duration>38</duration>
                                <start>154</start>
                                <end>192</end>
                                <in>0</in>
                                <out>38</out>
                            </clipitem>
                            <clipitem frameBlend="FALSE" id="clipitem-8">
                                <file id="file-8">
                                    <name>Screenshot from 2018-08-12 13-34-53-2-clipped.ppm</name>
                                    <pathurl>/home/andrewdo/video/resources/images/bytelibrary-screenshots/Screenshot from 2018-08-12 13-34-53-2-clipped.ppm</pathurl>
                                    <rate>
                                        <timebase>30</timebase>
                                        <ntsc>TRUE</ntsc>
                                    </rate>
                                    <duration>149</duration>
                                    <timecode>
                                        <rate>
                                            <timebase>30</timebase>
                                            <ntsc>TRUE</ntsc>
                                        </rate>
                                        <string>00:00:00:00</string>
                                        <frame>0</frame>
                                        <displayformat>NDF</displayformat>
                                    </timecode>
                                    <media>
                                        <video/>
                                        <audio/>
                                    </media>
                                </file>
                                <name/>
                                <rate>
                                    <timebase>30</timebase>
                                    <ntsc>TRUE</ntsc>
                                </rate>
                                <rate>
                                    <timebase>30</timebase>
                                    <ntsc>TRUE</ntsc>
                                </rate>
                                <duration>65</duration>
                                <start>192</start>
                                <end>257</end>
                                <in>0</in>
                                <out>65</out>
                            </clipitem>
                            <clipitem frameBlend="FALSE" id="clipitem-9">
                                <file id="file-9">
                                    <name>Screenshot from 2018-08-12 13-35-17-2-clipped.ppm</name>
                                    <pathurl>/home/andrewdo/video/resources/images/bytelibrary-screenshots/Screenshot from 2018-08-12 13-35-17-2-clipped.ppm</pathurl>
                                    <rate>
                                        <timebase>30</timebase>
                                        <ntsc>TRUE</ntsc>
                                    </rate>
                                    <duration>149</duration>
                                    <timecode>
                                        <rate>
                                            <timebase>30</timebase>
                                            <ntsc>TRUE</ntsc>
                                        </rate>
                                        <string>00:00:00:00</string>
                                        <frame>0</frame>
                                        <displayformat>NDF</displayformat>
                                    </timecode>
                                    <media>
                                        <video/>
                                        <audio/>
                                    </media>
                                </file>
                                <name/>
                                <rate>
                                    <timebase>30</timebase>
                                    <ntsc>TRUE</ntsc>
                                </rate>
                                <rate>
                                    <timebase>30</timebase>
                                    <ntsc>TRUE</ntsc>
                                </rate>
                                <duration>62</duration>
                                <start>257</start>
                                <end>319</end>
                                <in>0</in>
                                <out>62</out>
                            </clipitem>
                            <clipitem frameBlend="FALSE" id="clipitem-10">
                                <file id="file-10">
                                    <name>Screenshot from 2018-08-12 13-35-30-2-clipped.ppm</name>
                                    <pathurl>/home/andrewdo/video/resources/images/bytelibrary-screenshots/Screenshot from 2018-08-12 13-35-30-2-clipped.ppm</pathurl>
                                    <rate>
                                        <timebase>30</timebase>
                                        <ntsc>TRUE</ntsc>
                                    </rate>
                                    <duration>149</duration>
                                    <timecode>
                                        <rate>
                                            <timebase>30</timebase>
                                            <ntsc>TRUE</ntsc>
                                        </rate>
                                        <string>00:00:00:00</string>
                                        <frame>0</frame>
                                        <displayformat>NDF</displayformat>
                                    </timecode>
                                    <media>
                                        <video/>
                                        <audio/>
                                    </media>
                                </file>
                                <name/>
                                <rate>
                                    <timebase>30</timebase>
                                    <ntsc>TRUE</ntsc>
                                </rate>
                                <rate>
                                    <timebase>30</timebase>
                                    <ntsc>TRUE</ntsc>
                                </rate>
                                <duration>67</duration>
                                <start>319</start>
                                <end>386</end>
                                <in>0</in>
                                <out>67</out>
                            </clipitem>
                            <clipitem frameBlend="FALSE" id="clipitem-11">
                                <file id="file-11">
                                    <name>Screenshot from 2018-08-12 13-36-38-2-clipped.ppm</name>
                                    <pathurl>/home/andrewdo/video/resources/images/bytelibrary-screenshots/Screenshot from 2018-08-12 13-36-38-2-clipped.ppm</pathurl>
                                    <rate>
                                        <timebase>30</timebase>
                                        <ntsc>TRUE</ntsc>
                                    </rate>
                                    <duration>149</duration>
                                    <timecode>
                                        <rate>
                                            <timebase>30</timebase>
                                            <ntsc>TRUE</ntsc>
                                        </rate>
                                        <string>00:00:00:00</string>
                                        <frame>0</frame>
                                        <displayformat>NDF</displayformat>
                                    </timecode>
                                    <media>
                                        <video/>
                                        <audio/>
                                    </media>
                                </file>
                                <name/>
                                <rate>
                                    <timebase>30</timebase>
                                    <ntsc>TRUE</ntsc>
                                </rate>
                                <rate>
                                    <timebase>30</timebase>
                                    <ntsc>TRUE</ntsc>
                                </rate>
                                <duration>128</duration>
                                <start>386</start>
                                <end>514</end>
                                <in>0</in>
                                <out>128</out>
                            </clipitem>
                            <clipitem frameBlend="FALSE" id="clipitem-12">
                                <file id="file-12">
                                    <name>Screenshot from 2018-08-12 13-37-13-2-clipped.ppm</name>
                                    <pathurl>/home/andrewdo/video/resources/images/bytelibrary-screenshots/Screenshot from 2018-08-12 13-37-13-2-clipped.ppm</pathurl>
                                    <rate>
                                        <timebase>30</timebase>
                                        <ntsc>TRUE</ntsc>
                                    </rate>
                                    <duration>149</duration>
                                    <timecode>
                                        <rate>
                                            <timebase>30</timebase>
                                            <ntsc>TRUE</ntsc>
                                        </rate>
                                        <string>00:00:00:00</string>
                                        <frame>0</frame>
                                        <displayformat>NDF</displayformat>
                                    </timecode>
                                    <media>
                                        <video/>
                                        <audio/>
                                    </media>
                                </file>
                                <name/>
                                <rate>
                                    <timebase>30</timebase>
                                    <ntsc>TRUE</ntsc>
                                </rate>
                                <rate>
                                    <timebase>30</timebase>
                                    <ntsc>TRUE</ntsc>
                                </rate>
                                <duration>149</duration>
                                <start>514</start>
                                <end>663</end>
                                <in>0</in>
                                <out>149</out>
                            </clipitem>
                            <clipitem frameBlend="FALSE" id="clipitem-13">
                                <file id="file-13">
                                    <name>Screenshot from 2018-08-12 13-37-22-2-clipped.ppm</name>
                                    <pathurl>/home/andrewdo/video/resources/images/bytelibrary-screenshots/Screenshot from 2018-08-12 13-37-22-2-clipped.ppm</pathurl>
                                    <rate>
                                        <timebase>30</timebase>
                                        <ntsc>TRUE</ntsc>
                                    </rate>
                                    <duration>149</duration>
                                    <timecode>
                                        <rate>
                                            <timebase>30</timebase>
                                            <ntsc>TRUE</ntsc>
                                        </rate>
                                        <string>00:00:00:00</string>
                                        <frame>0</frame>
                                        <displayformat>NDF</displayformat>
                                    </timecode>
                                    <media>
                                        <video/>
                                        <audio/>
                                    </media>
                                </file>
                                <name/>
                                <rate>
                                    <timebase>30</timebase>
                                    <ntsc>TRUE</ntsc>
                                </rate>
                                <rate>
                                    <timebase>30</timebase>
                                    <ntsc>TRUE</ntsc>
                                </rate>
                                <duration>149</duration>
                                <start>663</start>
                                <end>812</end>
                                <in>0</in>
                                <out>149</out>
                            </clipitem>
                        </track>
                        <track/>
                    </video>
                    <audio>
                        <track>
                            <clipitem frameBlend="FALSE" id="clipitem-1">
                                <file id="file-1">
                                    <name>capture0016.wav</name>
                                    <pathurl>/home/andrewdo/Videos/capture0016.wav</pathurl>
                                    <rate>
                                        <timebase>30</timebase>
                                        <ntsc>TRUE</ntsc>
                                    </rate>
                                    <duration>117</duration>
                                    <timecode>
                                        <rate>
                                            <timebase>30</timebase>
                                            <ntsc>TRUE</ntsc>
                                        </rate>
                                        <string>00:00:00:00</string>
                                        <frame>0</frame>
                                        <displayformat>NDF</displayformat>
                                    </timecode>
                                    <media>
                                        <audio/>
                                    </media>
                                </file>
                                <name/>
                                <rate>
                                    <timebase>30</timebase>
                                    <ntsc>TRUE</ntsc>
                                </rate>
                                <rate>
                                    <timebase>30</timebase>
                                    <ntsc>TRUE</ntsc>
                                </rate>
                                <duration>117</duration>
                                <start>0</start>
                                <end>117</end>
                                <in>0</in>
                                <out>117</out>
                            </clipitem>
                            <clipitem frameBlend="FALSE" id="clipitem-2">
                                <file id="file-2">
                                    <name>capture0019.wav</name>
                                    <pathurl>/home/andrewdo/Videos/capture0019.wav</pathurl>
                                    <rate>
                                        <timebase>30</timebase>
                                        <ntsc>TRUE</ntsc>
                                    </rate>
                                    <duration>138</duration>
                                    <timecode>
                                        <rate>
                                            <timebase>30</timebase>
                                            <ntsc>TRUE</ntsc>
                                        </rate>
                                        <string>00:00:00:00</string>
                                        <frame>0</frame>
                                        <displayformat>NDF</displayformat>
                                    </timecode>
                                    <media>
                                        <audio/>
                                    </media>
                                </file>
                                <name/>
                                <rate>
                                    <timebase>30</timebase>
                                    <ntsc>TRUE</ntsc>
                                </rate>
                                <rate>
                                    <timebase>30</timebase>
                                    <ntsc>TRUE</ntsc>
                                </rate>
                                <duration>138</duration>
                                <start>121</start>
                                <end>259</end>
                                <in>0</in>
                                <out>138</out>
                            </clipitem>
                            <clipitem frameBlend="FALSE" id="clipitem-3">
                                <file id="file-3">
                                    <name>capture0022.wav</name>
                                    <pathurl>/home/andrewdo/Videos/capture0022.wav</pathurl>
                                    <rate>
                                        <timebase>30</timebase>
                                        <ntsc>TRUE</ntsc>
                                    </rate>
                                    <duration>130</duration>
                                    <timecode>
                                        <rate>
                                            <timebase>30</timebase>
                                            <ntsc>TRUE</ntsc>
                                        </rate>
                                        <string>00:00:00:00</string>
                                        <frame>0</frame>
                                        <displayformat>NDF</displayformat>
                                    </timecode>
                                    <media>
                                        <audio/>
                                    </media>
                                </file>
                                <name/>
                                <rate>
                                    <timebase>30</timebase>
                                    <ntsc>TRUE</ntsc>
                                </rate>
                                <rate>
                                    <timebase>30</timebase>
                                    <ntsc>TRUE</ntsc>
                                </rate>
                                <duration>130</duration>
                                <start>259</start>
                                <end>389</end>
                                <in>0</in>
                                <out>130</out>
                            </clipitem>
                            <clipitem frameBlend="FALSE" id="clipitem-4">
                                <file id="file-4">
                                    <name>capture0031.wav</name>
                                    <pathurl>/home/andrewdo/Videos/capture0031.wav</pathurl>
                                    <rate>
                                        <timebase>30</timebase>
                                        <ntsc>TRUE</ntsc>
                                    </rate>
                                    <duration>428</duration>
                                    <timecode>
                                        <rate>
                                            <timebase>30</timebase>
                                            <ntsc>TRUE</ntsc>
                                        </rate>
                                        <string>00:00:00:00</string>
                                        <frame>0</frame>
                                        <displayformat>NDF</displayformat>
                                    </timecode>
                                    <media>
                                        <audio/>
                                    </media>
                                </file>
                                <name/>
                                <rate>
                                    <timebase>30</timebase>
                                    <ntsc>TRUE</ntsc>
                                </rate>
                                <rate>
                                    <timebase>30</timebase>
                                    <ntsc>TRUE</ntsc>
                                </rate>
                                <duration>428</duration>
                                <start>389</start>
                                <end>817</end>
                                <in>0</in>
                                <out>428</out>
                            </clipitem>
                        </track>
                        <track/>
                    </audio>
                </media>
            </sequence>
        </children>
    </project>
</xmeml>
