<mlt LC_NUMERIC="en_US.UTF-8" producer="main_bin" title="Kdenlive imported timeline" version="6.16.0">
<profile colorspace="709" description="HD 1080p 59.9400599401 fps" display_aspect_den="9" display_aspect_num="16" frame_rate_den="1001" frame_rate_num="60000" height="1080" progressive="1" sample_aspect_den="1" sample_aspect_num="1" width="1920" />
<producer id="producer0" in="0:00:00" out="0:00:01.117783">
<property name="mlt_service">avformat</property>
<property name="resource">/media/andrewdo/SSD2/PresGen/projects/logicmoo-video-1/videos/a1.wav</property>
</producer>
<producer id="producer1" in="0:00:00" out="0:00:06.439767">
<property name="mlt_service">avformat</property>
<property name="resource">/media/andrewdo/SSD2/PresGen/projects/logicmoo-video-1/videos/a2.wav</property>
</producer>
<producer id="producer2" in="0:00:00" out="0:00:17.867850">
<property name="mlt_service">avformat</property>
<property name="resource">/media/andrewdo/SSD2/PresGen/projects/logicmoo-video-1/videos/a3.wav</property>
</producer>
<producer id="producer3" in="0:00:00" out="0:00:00">
<property name="mlt_service">avformat</property>
<property name="resource">/media/andrewdo/SSD2/PresGen/projects/logicmoo-video-1/videos/a4.wav</property>
</producer>
<producer id="producer4" in="0:00:00" out="0:00:14.848167">
<property name="mlt_service">avformat</property>
<property name="resource">/media/andrewdo/SSD2/PresGen/projects/logicmoo-video-1/videos/a5.wav</property>
</producer>
<producer id="producer5" in="0:00:00" out="0:00:01.985317">
<property name="mlt_service">avformat</property>
<property name="resource">/media/andrewdo/SSD2/PresGen/projects/logicmoo-video-1/videos/s1-2.mp4</property>
</producer>
<producer id="producer6" in="0:00:00" out="0:00:01.985317">
<property name="mlt_service">avformat</property>
<property name="resource">/media/andrewdo/SSD2/PresGen/projects/logicmoo-video-1/videos/s2-3.mp4</property>
</producer>
<producer id="producer7" in="0:00:00" out="0:00:01.985317">
<property name="mlt_service">avformat</property>
<property name="resource">/media/andrewdo/SSD2/PresGen/projects/logicmoo-video-1/videos/s3-4.mp4</property>
</producer>
<producer id="producer8" in="0:00:00" out="0:00:01.985317">
<property name="mlt_service">avformat</property>
<property name="resource">/media/andrewdo/SSD2/PresGen/projects/logicmoo-video-1/videos/s4-5.mp4</property>
</producer>
<producer id="producer9" in="0:00:00" out="0:00:01.985317">
<property name="mlt_service">avformat</property>
<property name="resource">/media/andrewdo/SSD2/PresGen/projects/logicmoo-video-1/videos/s5-6.mp4</property>
</producer>
<producer id="unsupported" in="0" out="10000">
<property name="mlt_service">qtext</property>
<property name="family">Courier</property>
<property name="fgcolour">#ff808080</property>
<property name="bgcolour">#00000000</property>
<property name="text">Unsupported clip type</property>
</producer>
<playlist id="main_bin">
<property name="kdenlive:docproperties.decimalPoint">.</property>
<property name="kdenlive:docproperties.version">0.98</property>
<property name="xml_retain">1</property>
<entry producer="producer0" />
<entry producer="producer1" />
<entry producer="producer2" />
<entry producer="producer3" />
<entry producer="producer4" />
<entry producer="producer5" />
<entry producer="producer6" />
<entry producer="producer7" />
<entry producer="producer8" />
<entry producer="producer9" />
<entry producer="unsupported" />
</playlist>
<producer id="black_track">
<property name="resource">black</property>
<property name="mlt_service">color</property>
</producer>
<playlist id="playlist1_1">
<property name="kdenlive:audio_track">1</property>
<entry in="0:00:00" out="0:00:01.117783" producer="producer0" />
<entry in="0:00:00.950950" out="0:00:07.390717" producer="producer1" />
<entry in="0:00:07.390717" out="0:00:25.258567" producer="producer2" />
<entry in="0:00:25.091733" out="0:00:25.091733" producer="producer3" />
<entry in="0:00:25.091733" out="0:00:39.939900" producer="producer4" />
</playlist>
<playlist id="playlist1_2">
<property name="kdenlive:audio_track">1</property>
</playlist>
<tractor id="tractor1">
<property name="kdenlive:track_name" />
<track hide="video" producer="playlist1_1" />
<track hide="video" producer="playlist1_2" />
<property name="kdenlive:audio_track">1</property>
</tractor>
<playlist id="playlist2_1">
<property name="kdenlive:audio_track">1</property>
</playlist>
<playlist id="playlist2_2">
<property name="kdenlive:audio_track">1</property>
</playlist>
<tractor id="tractor2">
<property name="kdenlive:track_name" />
<track hide="video" producer="playlist2_1" />
<track hide="video" producer="playlist2_2" />
<property name="kdenlive:audio_track">1</property>
</tractor>
<playlist id="playlist3_1">
<entry in="0:00:00" out="0:00:01.985317" producer="producer5" />
<entry in="0:00:01.818483" out="0:00:03.803800" producer="producer6" />
<entry in="0:00:03.636967" out="0:00:05.622283" producer="producer7" />
<entry in="0:00:05.622283" out="0:00:07.607600" producer="producer8" />
<entry in="0:00:07.607600" out="0:00:09.592917" producer="producer9" />
</playlist>
<playlist id="playlist3_2" />
<tractor id="tractor3">
<property name="kdenlive:track_name" />
<track hide="audio" producer="playlist3_1" />
<track hide="audio" producer="playlist3_2" />
</tractor>
<playlist id="playlist4_1" />
<playlist id="playlist4_2" />
<tractor id="tractor4">
<property name="kdenlive:track_name" />
<track hide="audio" producer="playlist4_1" />
<track hide="audio" producer="playlist4_2" />
</tractor>
<tractor global_feed="1">
<track producer="black_track" />
<track producer="tractor1" />
<track producer="tractor2" />
<track producer="tractor3" />
<track producer="tractor4" />
</tractor>
</mlt>