<?xml version="1.0" ?>
<xmeml version="4">
    <project>
        <name>Kdenlive imported timeline</name>
        <children>
            <sequence id="sequence-1">
                <name>Kdenlive imported timeline</name>
                <duration>2408</duration>
                <rate>
                    <timebase>60</timebase>
                    <ntsc>TRUE</ntsc>
                </rate>
                <media>
                    <video>
                        <track>
                            <clipitem frameBlend="FALSE" id="clipitem-6">
                                <file id="file-6">
                                    <name>s1-2.mp4</name>
                                    <pathurl>/media/andrewdo/SSD2/PresGen/projects/logicmoo-video-1/videos/s1-2.mp4</pathurl>
                                    <rate>
                                        <timebase>60</timebase>
                                        <ntsc>TRUE</ntsc>
                                    </rate>
                                    <duration>117</duration>
                                    <timecode>
                                        <rate>
                                            <timebase>60</timebase>
                                            <ntsc>TRUE</ntsc>
                                        </rate>
                                        <string>00:00:00:00</string>
                                        <frame>0</frame>
                                        <displayformat>NDF</displayformat>
                                    </timecode>
                                    <media>
                                        <video/>
                                        <audio/>
                                    </media>
                                </file>
                                <name/>
                                <rate>
                                    <timebase>60</timebase>
                                    <ntsc>TRUE</ntsc>
                                </rate>
                                <rate>
                                    <timebase>60</timebase>
                                    <ntsc>TRUE</ntsc>
                                </rate>
                                <duration>117</duration>
                                <start>0</start>
                                <end>117</end>
                                <in>0</in>
                                <out>117</out>
                            </clipitem>
                            <clipitem frameBlend="FALSE" id="clipitem-7">
                                <file id="file-7">
                                    <name>s2-3.mp4</name>
                                    <pathurl>/media/andrewdo/SSD2/PresGen/projects/logicmoo-video-1/videos/s2-3.mp4</pathurl>
                                    <rate>
                                        <timebase>60</timebase>
                                        <ntsc>TRUE</ntsc>
                                    </rate>
                                    <duration>118</duration>
                                    <timecode>
                                        <rate>
                                            <timebase>60</timebase>
                                            <ntsc>TRUE</ntsc>
                                        </rate>
                                        <string>00:00:00:00</string>
                                        <frame>0</frame>
                                        <displayformat>NDF</displayformat>
                                    </timecode>
                                    <media>
                                        <video/>
                                        <audio/>
                                    </media>
                                </file>
                                <name/>
                                <rate>
                                    <timebase>60</timebase>
                                    <ntsc>TRUE</ntsc>
                                </rate>
                                <rate>
                                    <timebase>60</timebase>
                                    <ntsc>TRUE</ntsc>
                                </rate>
                                <duration>118</duration>
                                <start>117</start>
                                <end>235</end>
                                <in>0</in>
                                <out>118</out>
                            </clipitem>
                            <clipitem frameBlend="FALSE" id="clipitem-8">
                                <file id="file-8">
                                    <name>s3-4.mp4</name>
                                    <pathurl>/media/andrewdo/SSD2/PresGen/projects/logicmoo-video-1/videos/s3-4.mp4</pathurl>
                                    <rate>
                                        <timebase>60</timebase>
                                        <ntsc>TRUE</ntsc>
                                    </rate>
                                    <duration>118</duration>
                                    <timecode>
                                        <rate>
                                            <timebase>60</timebase>
                                            <ntsc>TRUE</ntsc>
                                        </rate>
                                        <string>00:00:00:00</string>
                                        <frame>0</frame>
                                        <displayformat>NDF</displayformat>
                                    </timecode>
                                    <media>
                                        <video/>
                                        <audio/>
                                    </media>
                                </file>
                                <name/>
                                <rate>
                                    <timebase>60</timebase>
                                    <ntsc>TRUE</ntsc>
                                </rate>
                                <rate>
                                    <timebase>60</timebase>
                                    <ntsc>TRUE</ntsc>
                                </rate>
                                <duration>118</duration>
                                <start>235</start>
                                <end>353</end>
                                <in>0</in>
                                <out>118</out>
                            </clipitem>
                            <clipitem frameBlend="FALSE" id="clipitem-9">
                                <file id="file-9">
                                    <name>s4-5.mp4</name>
                                    <pathurl>/media/andrewdo/SSD2/PresGen/projects/logicmoo-video-1/videos/s4-5.mp4</pathurl>
                                    <rate>
                                        <timebase>60</timebase>
                                        <ntsc>TRUE</ntsc>
                                    </rate>
                                    <duration>118</duration>
                                    <timecode>
                                        <rate>
                                            <timebase>60</timebase>
                                            <ntsc>TRUE</ntsc>
                                        </rate>
                                        <string>00:00:00:00</string>
                                        <frame>0</frame>
                                        <displayformat>NDF</displayformat>
                                    </timecode>
                                    <media>
                                        <video/>
                                        <audio/>
                                    </media>
                                </file>
                                <name/>
                                <rate>
                                    <timebase>60</timebase>
                                    <ntsc>TRUE</ntsc>
                                </rate>
                                <rate>
                                    <timebase>60</timebase>
                                    <ntsc>TRUE</ntsc>
                                </rate>
                                <duration>118</duration>
                                <start>353</start>
                                <end>471</end>
                                <in>0</in>
                                <out>118</out>
                            </clipitem>
                            <clipitem frameBlend="FALSE" id="clipitem-10">
                                <file id="file-10">
                                    <name>s5-6.mp4</name>
                                    <pathurl>/media/andrewdo/SSD2/PresGen/projects/logicmoo-video-1/videos/s5-6.mp4</pathurl>
                                    <rate>
                                        <timebase>60</timebase>
                                        <ntsc>TRUE</ntsc>
                                    </rate>
                                    <duration>118</duration>
                                    <timecode>
                                        <rate>
                                            <timebase>60</timebase>
                                            <ntsc>TRUE</ntsc>
                                        </rate>
                                        <string>00:00:00:00</string>
                                        <frame>0</frame>
                                        <displayformat>NDF</displayformat>
                                    </timecode>
                                    <media>
                                        <video/>
                                        <audio/>
                                    </media>
                                </file>
                                <name/>
                                <rate>
                                    <timebase>60</timebase>
                                    <ntsc>TRUE</ntsc>
                                </rate>
                                <rate>
                                    <timebase>60</timebase>
                                    <ntsc>TRUE</ntsc>
                                </rate>
                                <duration>118</duration>
                                <start>471</start>
                                <end>589</end>
                                <in>0</in>
                                <out>118</out>
                            </clipitem>
                        </track>
                        <track>
                            <clipitem frameBlend="FALSE" id="clipitem-11">
                                <file id="file-11">
                                    <name>s2.png</name>
                                    <pathurl>/media/andrewdo/SSD2/PresGen/projects/logicmoo-video-1/videos/s2.png</pathurl>
                                    <rate>
                                        <timebase>60</timebase>
                                        <ntsc>TRUE</ntsc>
                                    </rate>
                                    <duration>298</duration>
                                    <timecode>
                                        <rate>
                                            <timebase>60</timebase>
                                            <ntsc>TRUE</ntsc>
                                        </rate>
                                        <string>00:00:00:00</string>
                                        <frame>0</frame>
                                        <displayformat>NDF</displayformat>
                                    </timecode>
                                    <media>
                                        <video/>
                                        <audio/>
                                    </media>
                                </file>
                                <name/>
                                <rate>
                                    <timebase>60</timebase>
                                    <ntsc>TRUE</ntsc>
                                </rate>
                                <rate>
                                    <timebase>60</timebase>
                                    <ntsc>TRUE</ntsc>
                                </rate>
                                <duration>298</duration>
                                <start>67</start>
                                <end>365</end>
                                <in>0</in>
                                <out>298</out>
                            </clipitem>
                        </track>
                    </video>
                    <audio>
                        <track>
                            <clipitem frameBlend="FALSE" id="clipitem-1">
                                <file id="file-1">
                                    <name>a1.wav</name>
                                    <pathurl>/media/andrewdo/SSD2/PresGen/projects/logicmoo-video-1/videos/a1.wav</pathurl>
                                    <rate>
                                        <timebase>60</timebase>
                                        <ntsc>TRUE</ntsc>
                                    </rate>
                                    <duration>66</duration>
                                    <timecode>
                                        <rate>
                                            <timebase>60</timebase>
                                            <ntsc>TRUE</ntsc>
                                        </rate>
                                        <string>00:00:00:00</string>
                                        <frame>0</frame>
                                        <displayformat>NDF</displayformat>
                                    </timecode>
                                    <media>
                                        <audio/>
                                    </media>
                                </file>
                                <name/>
                                <rate>
                                    <timebase>60</timebase>
                                    <ntsc>TRUE</ntsc>
                                </rate>
                                <rate>
                                    <timebase>60</timebase>
                                    <ntsc>TRUE</ntsc>
                                </rate>
                                <duration>66</duration>
                                <start>0</start>
                                <end>66</end>
                                <in>0</in>
                                <out>66</out>
                            </clipitem>
                            <clipitem frameBlend="FALSE" id="clipitem-2">
                                <file id="file-2">
                                    <name>a2.wav</name>
                                    <pathurl>/media/andrewdo/SSD2/PresGen/projects/logicmoo-video-1/videos/a2.wav</pathurl>
                                    <rate>
                                        <timebase>60</timebase>
                                        <ntsc>TRUE</ntsc>
                                    </rate>
                                    <duration>384</duration>
                                    <timecode>
                                        <rate>
                                            <timebase>60</timebase>
                                            <ntsc>TRUE</ntsc>
                                        </rate>
                                        <string>00:00:00:00</string>
                                        <frame>0</frame>
                                        <displayformat>NDF</displayformat>
                                    </timecode>
                                    <media>
                                        <audio/>
                                    </media>
                                </file>
                                <name/>
                                <rate>
                                    <timebase>60</timebase>
                                    <ntsc>TRUE</ntsc>
                                </rate>
                                <rate>
                                    <timebase>60</timebase>
                                    <ntsc>TRUE</ntsc>
                                </rate>
                                <duration>384</duration>
                                <start>66</start>
                                <end>450</end>
                                <in>0</in>
                                <out>384</out>
                            </clipitem>
                            <clipitem frameBlend="FALSE" id="clipitem-3">
                                <file id="file-3">
                                    <name>a3.wav</name>
                                    <pathurl>/media/andrewdo/SSD2/PresGen/projects/logicmoo-video-1/videos/a3.wav</pathurl>
                                    <rate>
                                        <timebase>60</timebase>
                                        <ntsc>TRUE</ntsc>
                                    </rate>
                                    <duration>1069</duration>
                                    <timecode>
                                        <rate>
                                            <timebase>60</timebase>
                                            <ntsc>TRUE</ntsc>
                                        </rate>
                                        <string>00:00:00:00</string>
                                        <frame>0</frame>
                                        <displayformat>NDF</displayformat>
                                    </timecode>
                                    <media>
                                        <audio/>
                                    </media>
                                </file>
                                <name/>
                                <rate>
                                    <timebase>60</timebase>
                                    <ntsc>TRUE</ntsc>
                                </rate>
                                <rate>
                                    <timebase>60</timebase>
                                    <ntsc>TRUE</ntsc>
                                </rate>
                                <duration>1069</duration>
                                <start>450</start>
                                <end>1519</end>
                                <in>0</in>
                                <out>1069</out>
                            </clipitem>
                            <clipitem frameBlend="FALSE" id="clipitem-4">
                                <file id="file-4">
                                    <name>a4.wav</name>
                                    <pathurl>/media/andrewdo/SSD2/PresGen/projects/logicmoo-video-1/videos/a4.wav</pathurl>
                                    <rate>
                                        <timebase>60</timebase>
                                        <ntsc>TRUE</ntsc>
                                    </rate>
                                    <duration>2084</duration>
                                    <timecode>
                                        <rate>
                                            <timebase>60</timebase>
                                            <ntsc>TRUE</ntsc>
                                        </rate>
                                        <string>00:00:00:00</string>
                                        <frame>0</frame>
                                        <displayformat>NDF</displayformat>
                                    </timecode>
                                    <media>
                                        <audio/>
                                    </media>
                                </file>
                                <name/>
                                <rate>
                                    <timebase>60</timebase>
                                    <ntsc>TRUE</ntsc>
                                </rate>
                                <rate>
                                    <timebase>60</timebase>
                                    <ntsc>TRUE</ntsc>
                                </rate>
                                <duration>0</duration>
                                <start>1519</start>
                                <end>1519</end>
                                <in>0</in>
                                <out>0</out>
                            </clipitem>
                            <clipitem frameBlend="FALSE" id="clipitem-5">
                                <file id="file-5">
                                    <name>a5.wav</name>
                                    <pathurl>/media/andrewdo/SSD2/PresGen/projects/logicmoo-video-1/videos/a5.wav</pathurl>
                                    <rate>
                                        <timebase>60</timebase>
                                        <ntsc>TRUE</ntsc>
                                    </rate>
                                    <duration>889</duration>
                                    <timecode>
                                        <rate>
                                            <timebase>60</timebase>
                                            <ntsc>TRUE</ntsc>
                                        </rate>
                                        <string>00:00:00:00</string>
                                        <frame>0</frame>
                                        <displayformat>NDF</displayformat>
                                    </timecode>
                                    <media>
                                        <audio/>
                                    </media>
                                </file>
                                <name/>
                                <rate>
                                    <timebase>60</timebase>
                                    <ntsc>TRUE</ntsc>
                                </rate>
                                <rate>
                                    <timebase>60</timebase>
                                    <ntsc>TRUE</ntsc>
                                </rate>
                                <duration>889</duration>
                                <start>1519</start>
                                <end>2408</end>
                                <in>0</in>
                                <out>889</out>
                            </clipitem>
                        </track>
                        <track/>
                    </audio>
                </media>
            </sequence>
        </children>
    </project>
</xmeml>
