<mlt LC_NUMERIC="en_US.UTF-8" producer="main_bin" title="Kdenlive imported timeline" version="6.16.0">
<profile colorspace="709" description="HD 1080p 59.9400599401 fps" display_aspect_den="9" display_aspect_num="16" frame_rate_den="1001" frame_rate_num="60000" height="1080" progressive="1" sample_aspect_den="1" sample_aspect_num="1" width="1920" />
<producer id="producer0" in="0:00:00" out="0:00:00.767433">
<property name="mlt_service">avformat</property>
<property name="resource">/media/andrewdo/SSD2/PresGen/projects/logicmoo-video-1/videos/a1.wav</property>
</producer>
<producer id="producer1" in="0:00:00" out="0:00:03.586917">
<property name="mlt_service">avformat</property>
<property name="resource">/media/andrewdo/SSD2/PresGen/projects/logicmoo-video-1/videos/a2.wav</property>
</producer>
<producer id="producer2" in="0:00:00" out="0:00:12.045367">
<property name="mlt_service">avformat</property>
<property name="resource">/media/andrewdo/SSD2/PresGen/projects/logicmoo-video-1/videos/a3.wav</property>
</producer>
<producer id="producer3" in="0:00:00" out="0:00:23.173150">
<property name="mlt_service">avformat</property>
<property name="resource">/media/andrewdo/SSD2/PresGen/projects/logicmoo-video-1/videos/a4.wav</property>
</producer>
<producer id="producer4" in="0:00:00" out="0:00:10.126783">
<property name="mlt_service">avformat</property>
<property name="resource">/media/andrewdo/SSD2/PresGen/projects/logicmoo-video-1/videos/a5.wav</property>
</producer>
<producer id="producer5" in="0:00:00" out="0:00:17.400717">
<property name="mlt_service">avformat</property>
<property name="resource">/media/andrewdo/SSD2/PresGen/projects/logicmoo-video-1/videos/a6.wav</property>
</producer>
<producer id="producer6" in="0:00:00" out="0:00:18.868850">
<property name="mlt_service">avformat</property>
<property name="resource">/media/andrewdo/SSD2/PresGen/projects/logicmoo-video-1/videos/a7.wav</property>
</producer>
<producer id="producer7" in="0:00:00" out="0:00:11.027683">
<property name="mlt_service">avformat</property>
<property name="resource">/media/andrewdo/SSD2/PresGen/projects/logicmoo-video-1/videos/a8.wav</property>
</producer>
<producer id="producer8" in="0:00:00" out="0:00:19.035683">
<property name="mlt_service">avformat</property>
<property name="resource">/media/andrewdo/SSD2/PresGen/projects/logicmoo-video-1/videos/a9.wav</property>
</producer>
<producer id="producer9" in="0:00:00" out="0:00:11.327983">
<property name="mlt_service">avformat</property>
<property name="resource">/media/andrewdo/SSD2/PresGen/projects/logicmoo-video-1/videos/a10.wav</property>
</producer>
<producer id="producer10" in="0:00:00" out="0:00:08.925583">
<property name="mlt_service">avformat</property>
<property name="resource">/media/andrewdo/SSD2/PresGen/projects/logicmoo-video-1/videos/a11.wav</property>
</producer>
<producer id="producer11" in="0:00:00" out="0:00:23.106417">
<property name="mlt_service">avformat</property>
<property name="resource">/media/andrewdo/SSD2/PresGen/projects/logicmoo-video-1/videos/a12.wav</property>
</producer>
<producer id="producer12" in="0:00:00" out="0:00:13.496817">
<property name="mlt_service">avformat</property>
<property name="resource">/media/andrewdo/SSD2/PresGen/projects/logicmoo-video-1/videos/a13.wav</property>
</producer>
<producer id="producer13" in="0:00:00" out="0:00:21.438083">
<property name="mlt_service">avformat</property>
<property name="resource">/media/andrewdo/SSD2/PresGen/projects/logicmoo-video-1/videos/a14.wav</property>
</producer>
<producer id="producer14" in="0:00:00" out="0:00:09.092417">
<property name="mlt_service">avformat</property>
<property name="resource">/media/andrewdo/SSD2/PresGen/projects/logicmoo-video-1/videos/a15.wav</property>
</producer>
<producer id="producer15" in="0:00:00" out="0:00:15.248567">
<property name="mlt_service">avformat</property>
<property name="resource">/media/andrewdo/SSD2/PresGen/projects/logicmoo-video-1/videos/a16.wav</property>
</producer>
<producer id="producer16" in="0:00:00" out="0:00:19.436083">
<property name="mlt_service">avformat</property>
<property name="resource">/media/andrewdo/SSD2/PresGen/projects/logicmoo-video-1/videos/a17.wav</property>
</producer>
<producer id="producer17" in="0:00:00" out="0:00:04.437767">
<property name="mlt_service">avformat</property>
<property name="resource">/media/andrewdo/SSD2/PresGen/projects/logicmoo-video-1/videos/a18.wav</property>
</producer>
<producer id="producer18" in="0:00:00" out="0:00:04.988317">
<property name="mlt_service">avformat</property>
<property name="resource">/media/andrewdo/SSD2/PresGen/projects/logicmoo-video-1/videos/a19.wav</property>
</producer>
<producer id="producer19" in="0:00:00" out="0:00:21.955267">
<property name="mlt_service">avformat</property>
<property name="resource">/media/andrewdo/SSD2/PresGen/projects/logicmoo-video-1/videos/a20.wav</property>
</producer>
<producer id="producer20" in="0:00:00" out="0:00:04.087417">
<property name="mlt_service">avformat</property>
<property name="resource">/media/andrewdo/SSD2/PresGen/projects/logicmoo-video-1/videos/a21.wav</property>
</producer>
<producer id="producer21" in="0:00:00" out="0:00:20.253567">
<property name="mlt_service">avformat</property>
<property name="resource">/media/andrewdo/SSD2/PresGen/projects/logicmoo-video-1/videos/a22.wav</property>
</producer>
<producer id="producer22" in="0:00:00" out="0:00:10.110100">
<property name="mlt_service">avformat</property>
<property name="resource">/media/andrewdo/SSD2/PresGen/projects/logicmoo-video-1/videos/a23.wav</property>
</producer>
<producer id="producer23" in="0:00:00" out="0:00:01.117783">
<property name="mlt_service">avformat</property>
<property name="resource">/media/andrewdo/SSD2/PresGen/projects/logicmoo-video-1/videos/a24.wav</property>
</producer>
<producer id="producer24" in="0:00:00" out="0:00:21.254567">
<property name="mlt_service">avformat</property>
<property name="resource">/media/andrewdo/SSD2/PresGen/projects/logicmoo-video-1/videos/a25.wav</property>
</producer>
<producer id="producer25" in="0:00:00" out="0:00:11.945267">
<property name="mlt_service">avformat</property>
<property name="resource">/media/andrewdo/SSD2/PresGen/projects/logicmoo-video-1/videos/a26.wav</property>
</producer>
<producer id="producer26" in="0:00:00" out="0:00:05.672333">
<property name="mlt_service">avformat</property>
<property name="resource">/media/andrewdo/SSD2/PresGen/projects/logicmoo-video-1/videos/a27.wav</property>
</producer>
<producer id="producer27" in="0:00:00" out="0:00:14.864850">
<property name="mlt_service">avformat</property>
<property name="resource">/media/andrewdo/SSD2/PresGen/projects/logicmoo-video-1/videos/a28.wav</property>
</producer>
<producer id="producer28" in="0:00:00" out="0:00:27.394033">
<property name="mlt_service">avformat</property>
<property name="resource">/media/andrewdo/SSD2/PresGen/projects/logicmoo-video-1/videos/a29.wav</property>
</producer>
<producer id="producer29" in="0:00:00" out="0:00:10.126783">
<property name="mlt_service">avformat</property>
<property name="resource">/media/andrewdo/SSD2/PresGen/projects/logicmoo-video-1/videos/a30.wav</property>
</producer>
<producer id="producer30" in="0:00:00" out="0:00:12.729383">
<property name="mlt_service">avformat</property>
<property name="resource">/media/andrewdo/SSD2/PresGen/projects/logicmoo-video-1/videos/a31.wav</property>
</producer>
<producer id="producer31" in="0:00:00" out="0:00:06.856850">
<property name="mlt_service">avformat</property>
<property name="resource">/media/andrewdo/SSD2/PresGen/projects/logicmoo-video-1/videos/a32.wav</property>
</producer>
<producer id="producer32" in="0:00:00" out="0:00:13.430083">
<property name="mlt_service">avformat</property>
<property name="resource">/media/andrewdo/SSD2/PresGen/projects/logicmoo-video-1/videos/a33.wav</property>
</producer>
<producer id="producer33" in="0:00:00" out="0:00:03.737067">
<property name="mlt_service">avformat</property>
<property name="resource">/media/andrewdo/SSD2/PresGen/projects/logicmoo-video-1/videos/a34.wav</property>
</producer>
<producer id="producer34" in="0:00:00" out="0:00:01.184517">
<property name="mlt_service">avformat</property>
<property name="resource">/media/andrewdo/SSD2/PresGen/projects/logicmoo-video-1/videos/a35.wav</property>
</producer>
<producer id="producer35" in="0:00:00" out="0:00:02.252250">
<property name="mlt_service">avformat</property>
<property name="resource">/media/andrewdo/SSD2/PresGen/projects/logicmoo-video-1/videos/a36.wav</property>
</producer>
<producer id="producer36" in="0:00:00" out="0:00:20.353667">
<property name="mlt_service">avformat</property>
<property name="resource">/media/andrewdo/SSD2/PresGen/projects/logicmoo-video-1/videos/a37.wav</property>
</producer>
<producer id="producer37" in="0:00:00" out="0:00:05.822483">
<property name="mlt_service">avformat</property>
<property name="resource">/media/andrewdo/SSD2/PresGen/projects/logicmoo-video-1/videos/a38.wav</property>
</producer>
<producer id="producer38" in="0:00:00" out="0:00:14.948267">
<property name="mlt_service">avformat</property>
<property name="resource">/media/andrewdo/SSD2/PresGen/projects/logicmoo-video-1/videos/a39.wav</property>
</producer>
<producer id="producer39" in="0:00:00" out="0:00:02.535867">
<property name="mlt_service">avformat</property>
<property name="resource">/media/andrewdo/SSD2/PresGen/projects/logicmoo-video-1/videos/a40.wav</property>
</producer>
<producer id="producer40" in="0:00:00" out="0:00:00.617283">
<property name="mlt_service">avformat</property>
<property name="resource">/media/andrewdo/SSD2/PresGen/projects/logicmoo-video-1/videos/a41.wav</property>
</producer>
<producer id="producer41" in="0:00:00" out="0:00:00.016683">
<property name="mlt_service">qimage</property>
<property name="resource">/media/andrewdo/SSD2/PresGen/projects/logicmoo-video-1/videos/s1.png</property>
</producer>
<producer id="producer42" in="0:00:00" out="0:00:02.002000">
<property name="mlt_service">avformat</property>
<property name="resource">/media/andrewdo/SSD2/PresGen/projects/logicmoo-video-1/videos/s1-2.mp4</property>
</producer>
<producer id="producer43" in="0:00:00" out="0:00:01.601600">
<property name="mlt_service">qimage</property>
<property name="resource">/media/andrewdo/SSD2/PresGen/projects/logicmoo-video-1/videos/s2.png</property>
</producer>
<producer id="producer44" in="0:00:00" out="0:00:01.968633">
<property name="mlt_service">avformat</property>
<property name="resource">/media/andrewdo/SSD2/PresGen/projects/logicmoo-video-1/videos/s2-3.mp4</property>
</producer>
<producer id="producer45" in="0:00:00" out="0:00:10.060050">
<property name="mlt_service">qimage</property>
<property name="resource">/media/andrewdo/SSD2/PresGen/projects/logicmoo-video-1/videos/s3.png</property>
</producer>
<producer id="producer46" in="0:00:00" out="0:00:01.985317">
<property name="mlt_service">avformat</property>
<property name="resource">/media/andrewdo/SSD2/PresGen/projects/logicmoo-video-1/videos/s3-4.mp4</property>
</producer>
<producer id="producer47" in="0:00:00" out="0:00:21.187833">
<property name="mlt_service">qimage</property>
<property name="resource">/media/andrewdo/SSD2/PresGen/projects/logicmoo-video-1/videos/s4.png</property>
</producer>
<producer id="producer48" in="0:00:00" out="0:00:01.985317">
<property name="mlt_service">avformat</property>
<property name="resource">/media/andrewdo/SSD2/PresGen/projects/logicmoo-video-1/videos/s4-5.mp4</property>
</producer>
<producer id="producer49" in="0:00:00" out="0:00:08.141467">
<property name="mlt_service">qimage</property>
<property name="resource">/media/andrewdo/SSD2/PresGen/projects/logicmoo-video-1/videos/s5.png</property>
</producer>
<producer id="producer50" in="0:00:00" out="0:00:01.985317">
<property name="mlt_service">avformat</property>
<property name="resource">/media/andrewdo/SSD2/PresGen/projects/logicmoo-video-1/videos/s5-6.mp4</property>
</producer>
<producer id="producer51" in="0:00:00" out="0:00:15.415400">
<property name="mlt_service">qimage</property>
<property name="resource">/media/andrewdo/SSD2/PresGen/projects/logicmoo-video-1/videos/s6.png</property>
</producer>
<producer id="producer52" in="0:00:00" out="0:00:01.985317">
<property name="mlt_service">avformat</property>
<property name="resource">/media/andrewdo/SSD2/PresGen/projects/logicmoo-video-1/videos/s6-7.mp4</property>
</producer>
<producer id="producer53" in="0:00:00" out="0:00:16.883533">
<property name="mlt_service">qimage</property>
<property name="resource">/media/andrewdo/SSD2/PresGen/projects/logicmoo-video-1/videos/s7.png</property>
</producer>
<producer id="producer54" in="0:00:00" out="0:00:01.985317">
<property name="mlt_service">avformat</property>
<property name="resource">/media/andrewdo/SSD2/PresGen/projects/logicmoo-video-1/videos/s7-8.mp4</property>
</producer>
<producer id="producer55" in="0:00:00" out="0:00:09.042367">
<property name="mlt_service">qimage</property>
<property name="resource">/media/andrewdo/SSD2/PresGen/projects/logicmoo-video-1/videos/s8.png</property>
</producer>
<producer id="producer56" in="0:00:00" out="0:00:01.985317">
<property name="mlt_service">avformat</property>
<property name="resource">/media/andrewdo/SSD2/PresGen/projects/logicmoo-video-1/videos/s8-9.mp4</property>
</producer>
<producer id="producer57" in="0:00:00" out="0:00:17.050367">
<property name="mlt_service">qimage</property>
<property name="resource">/media/andrewdo/SSD2/PresGen/projects/logicmoo-video-1/videos/s9.png</property>
</producer>
<producer id="producer58" in="0:00:00" out="0:00:01.985317">
<property name="mlt_service">avformat</property>
<property name="resource">/media/andrewdo/SSD2/PresGen/projects/logicmoo-video-1/videos/s9-10.mp4</property>
</producer>
<producer id="producer59" in="0:00:00" out="0:00:09.342667">
<property name="mlt_service">qimage</property>
<property name="resource">/media/andrewdo/SSD2/PresGen/projects/logicmoo-video-1/videos/s10.png</property>
</producer>
<producer id="producer60" in="0:00:00" out="0:00:01.985317">
<property name="mlt_service">avformat</property>
<property name="resource">/media/andrewdo/SSD2/PresGen/projects/logicmoo-video-1/videos/s10-11.mp4</property>
</producer>
<producer id="producer61" in="0:00:00" out="0:00:06.940267">
<property name="mlt_service">qimage</property>
<property name="resource">/media/andrewdo/SSD2/PresGen/projects/logicmoo-video-1/videos/s11.png</property>
</producer>
<producer id="producer62" in="0:00:00" out="0:00:01.985317">
<property name="mlt_service">avformat</property>
<property name="resource">/media/andrewdo/SSD2/PresGen/projects/logicmoo-video-1/videos/s11-12.mp4</property>
</producer>
<producer id="producer63" in="0:00:00" out="0:00:21.121100">
<property name="mlt_service">qimage</property>
<property name="resource">/media/andrewdo/SSD2/PresGen/projects/logicmoo-video-1/videos/s12.png</property>
</producer>
<producer id="producer64" in="0:00:00" out="0:00:01.985317">
<property name="mlt_service">avformat</property>
<property name="resource">/media/andrewdo/SSD2/PresGen/projects/logicmoo-video-1/videos/s12-13.mp4</property>
</producer>
<producer id="producer65" in="0:00:00" out="0:00:11.511500">
<property name="mlt_service">qimage</property>
<property name="resource">/media/andrewdo/SSD2/PresGen/projects/logicmoo-video-1/videos/s13.png</property>
</producer>
<producer id="producer66" in="0:00:00" out="0:00:01.985317">
<property name="mlt_service">avformat</property>
<property name="resource">/media/andrewdo/SSD2/PresGen/projects/logicmoo-video-1/videos/s13-14.mp4</property>
</producer>
<producer id="producer67" in="0:00:00" out="0:00:19.452767">
<property name="mlt_service">qimage</property>
<property name="resource">/media/andrewdo/SSD2/PresGen/projects/logicmoo-video-1/videos/s14.png</property>
</producer>
<producer id="producer68" in="0:00:00" out="0:00:01.985317">
<property name="mlt_service">avformat</property>
<property name="resource">/media/andrewdo/SSD2/PresGen/projects/logicmoo-video-1/videos/s14-15.mp4</property>
</producer>
<producer id="producer69" in="0:00:00" out="0:00:07.107100">
<property name="mlt_service">qimage</property>
<property name="resource">/media/andrewdo/SSD2/PresGen/projects/logicmoo-video-1/videos/s15.png</property>
</producer>
<producer id="producer70" in="0:00:00" out="0:00:01.968633">
<property name="mlt_service">avformat</property>
<property name="resource">/media/andrewdo/SSD2/PresGen/projects/logicmoo-video-1/videos/s15-16.mp4</property>
</producer>
<producer id="producer71" in="0:00:00" out="0:00:13.263250">
<property name="mlt_service">qimage</property>
<property name="resource">/media/andrewdo/SSD2/PresGen/projects/logicmoo-video-1/videos/s16.png</property>
</producer>
<producer id="producer72" in="0:00:00" out="0:00:01.985317">
<property name="mlt_service">avformat</property>
<property name="resource">/media/andrewdo/SSD2/PresGen/projects/logicmoo-video-1/videos/s16-17.mp4</property>
</producer>
<producer id="producer73" in="0:00:00" out="0:00:17.450767">
<property name="mlt_service">qimage</property>
<property name="resource">/media/andrewdo/SSD2/PresGen/projects/logicmoo-video-1/videos/s17.png</property>
</producer>
<producer id="producer74" in="0:00:00" out="0:00:01.985317">
<property name="mlt_service">avformat</property>
<property name="resource">/media/andrewdo/SSD2/PresGen/projects/logicmoo-video-1/videos/s17-18.mp4</property>
</producer>
<producer id="producer75" in="0:00:00" out="0:00:02.452450">
<property name="mlt_service">qimage</property>
<property name="resource">/media/andrewdo/SSD2/PresGen/projects/logicmoo-video-1/videos/s18.png</property>
</producer>
<producer id="producer76" in="0:00:00" out="0:00:01.985317">
<property name="mlt_service">avformat</property>
<property name="resource">/media/andrewdo/SSD2/PresGen/projects/logicmoo-video-1/videos/s18-19.mp4</property>
</producer>
<producer id="producer77" in="0:00:00" out="0:00:03.003000">
<property name="mlt_service">qimage</property>
<property name="resource">/media/andrewdo/SSD2/PresGen/projects/logicmoo-video-1/videos/s19.png</property>
</producer>
<producer id="producer78" in="0:00:00" out="0:00:01.985317">
<property name="mlt_service">avformat</property>
<property name="resource">/media/andrewdo/SSD2/PresGen/projects/logicmoo-video-1/videos/s19-20.mp4</property>
</producer>
<producer id="producer79" in="0:00:00" out="0:00:19.969950">
<property name="mlt_service">qimage</property>
<property name="resource">/media/andrewdo/SSD2/PresGen/projects/logicmoo-video-1/videos/s20.png</property>
</producer>
<producer id="producer80" in="0:00:00" out="0:00:01.985317">
<property name="mlt_service">avformat</property>
<property name="resource">/media/andrewdo/SSD2/PresGen/projects/logicmoo-video-1/videos/s20-21.mp4</property>
</producer>
<producer id="producer81" in="0:00:00" out="0:00:02.102100">
<property name="mlt_service">qimage</property>
<property name="resource">/media/andrewdo/SSD2/PresGen/projects/logicmoo-video-1/videos/s21.png</property>
</producer>
<producer id="producer82" in="0:00:00" out="0:00:01.985317">
<property name="mlt_service">avformat</property>
<property name="resource">/media/andrewdo/SSD2/PresGen/projects/logicmoo-video-1/videos/s21-22.mp4</property>
</producer>
<producer id="producer83" in="0:00:00" out="0:00:18.268250">
<property name="mlt_service">qimage</property>
<property name="resource">/media/andrewdo/SSD2/PresGen/projects/logicmoo-video-1/videos/s22.png</property>
</producer>
<producer id="producer84" in="0:00:00" out="0:00:01.985317">
<property name="mlt_service">avformat</property>
<property name="resource">/media/andrewdo/SSD2/PresGen/projects/logicmoo-video-1/videos/s22-23.mp4</property>
</producer>
<producer id="producer85" in="0:00:00" out="0:00:08.124783">
<property name="mlt_service">qimage</property>
<property name="resource">/media/andrewdo/SSD2/PresGen/projects/logicmoo-video-1/videos/s23.png</property>
</producer>
<producer id="producer86" in="0:00:00" out="0:00:01.985317">
<property name="mlt_service">avformat</property>
<property name="resource">/media/andrewdo/SSD2/PresGen/projects/logicmoo-video-1/videos/s23-24.mp4</property>
</producer>
<producer id="producer87" in="0:00:00" out="0:00:00.016683">
<property name="mlt_service">qimage</property>
<property name="resource">/media/andrewdo/SSD2/PresGen/projects/logicmoo-video-1/videos/s24.png</property>
</producer>
<producer id="producer88" in="0:00:00" out="0:00:01.985317">
<property name="mlt_service">avformat</property>
<property name="resource">/media/andrewdo/SSD2/PresGen/projects/logicmoo-video-1/videos/s24-25.mp4</property>
</producer>
<producer id="producer89" in="0:00:00" out="0:00:19.269250">
<property name="mlt_service">qimage</property>
<property name="resource">/media/andrewdo/SSD2/PresGen/projects/logicmoo-video-1/videos/s25.png</property>
</producer>
<producer id="producer90" in="0:00:00" out="0:00:01.985317">
<property name="mlt_service">avformat</property>
<property name="resource">/media/andrewdo/SSD2/PresGen/projects/logicmoo-video-1/videos/s25-26.mp4</property>
</producer>
<producer id="producer91" in="0:00:00" out="0:00:09.959950">
<property name="mlt_service">qimage</property>
<property name="resource">/media/andrewdo/SSD2/PresGen/projects/logicmoo-video-1/videos/s26.png</property>
</producer>
<producer id="producer92" in="0:00:00" out="0:00:01.985317">
<property name="mlt_service">avformat</property>
<property name="resource">/media/andrewdo/SSD2/PresGen/projects/logicmoo-video-1/videos/s26-27.mp4</property>
</producer>
<producer id="producer93" in="0:00:00" out="0:00:03.687017">
<property name="mlt_service">qimage</property>
<property name="resource">/media/andrewdo/SSD2/PresGen/projects/logicmoo-video-1/videos/s27.png</property>
</producer>
<producer id="producer94" in="0:00:00" out="0:00:01.985317">
<property name="mlt_service">avformat</property>
<property name="resource">/media/andrewdo/SSD2/PresGen/projects/logicmoo-video-1/videos/s27-28.mp4</property>
</producer>
<producer id="producer95" in="0:00:00" out="0:00:12.879533">
<property name="mlt_service">qimage</property>
<property name="resource">/media/andrewdo/SSD2/PresGen/projects/logicmoo-video-1/videos/s28.png</property>
</producer>
<producer id="producer96" in="0:00:00" out="0:00:01.985317">
<property name="mlt_service">avformat</property>
<property name="resource">/media/andrewdo/SSD2/PresGen/projects/logicmoo-video-1/videos/s28-29.mp4</property>
</producer>
<producer id="producer97" in="0:00:00" out="0:00:25.408717">
<property name="mlt_service">qimage</property>
<property name="resource">/media/andrewdo/SSD2/PresGen/projects/logicmoo-video-1/videos/s29.png</property>
</producer>
<producer id="producer98" in="0:00:00" out="0:00:01.985317">
<property name="mlt_service">avformat</property>
<property name="resource">/media/andrewdo/SSD2/PresGen/projects/logicmoo-video-1/videos/s29-30.mp4</property>
</producer>
<producer id="producer99" in="0:00:00" out="0:00:08.141467">
<property name="mlt_service">qimage</property>
<property name="resource">/media/andrewdo/SSD2/PresGen/projects/logicmoo-video-1/videos/s30.png</property>
</producer>
<producer id="producer100" in="0:00:00" out="0:00:01.985317">
<property name="mlt_service">avformat</property>
<property name="resource">/media/andrewdo/SSD2/PresGen/projects/logicmoo-video-1/videos/s30-31.mp4</property>
</producer>
<producer id="producer101" in="0:00:00" out="0:00:10.744067">
<property name="mlt_service">qimage</property>
<property name="resource">/media/andrewdo/SSD2/PresGen/projects/logicmoo-video-1/videos/s31.png</property>
</producer>
<producer id="producer102" in="0:00:00" out="0:00:01.985317">
<property name="mlt_service">avformat</property>
<property name="resource">/media/andrewdo/SSD2/PresGen/projects/logicmoo-video-1/videos/s31-32.mp4</property>
</producer>
<producer id="producer103" in="0:00:00" out="0:00:04.871533">
<property name="mlt_service">qimage</property>
<property name="resource">/media/andrewdo/SSD2/PresGen/projects/logicmoo-video-1/videos/s32.png</property>
</producer>
<producer id="producer104" in="0:00:00" out="0:00:01.985317">
<property name="mlt_service">avformat</property>
<property name="resource">/media/andrewdo/SSD2/PresGen/projects/logicmoo-video-1/videos/s32-33.mp4</property>
</producer>
<producer id="producer105" in="0:00:00" out="0:00:11.444767">
<property name="mlt_service">qimage</property>
<property name="resource">/media/andrewdo/SSD2/PresGen/projects/logicmoo-video-1/videos/s33.png</property>
</producer>
<producer id="producer106" in="0:00:00" out="0:00:01.985317">
<property name="mlt_service">avformat</property>
<property name="resource">/media/andrewdo/SSD2/PresGen/projects/logicmoo-video-1/videos/s33-34.mp4</property>
</producer>
<producer id="producer107" in="0:00:00" out="0:00:01.751750">
<property name="mlt_service">qimage</property>
<property name="resource">/media/andrewdo/SSD2/PresGen/projects/logicmoo-video-1/videos/s34.png</property>
</producer>
<producer id="producer108" in="0:00:00" out="0:00:01.985317">
<property name="mlt_service">avformat</property>
<property name="resource">/media/andrewdo/SSD2/PresGen/projects/logicmoo-video-1/videos/s34-35.mp4</property>
</producer>
<producer id="producer109" in="0:00:00" out="0:00:00.016683">
<property name="mlt_service">qimage</property>
<property name="resource">/media/andrewdo/SSD2/PresGen/projects/logicmoo-video-1/videos/s35.png</property>
</producer>
<producer id="producer110" in="0:00:00" out="0:00:01.985317">
<property name="mlt_service">avformat</property>
<property name="resource">/media/andrewdo/SSD2/PresGen/projects/logicmoo-video-1/videos/s35-36.mp4</property>
</producer>
<producer id="producer111" in="0:00:00" out="0:00:00.266933">
<property name="mlt_service">qimage</property>
<property name="resource">/media/andrewdo/SSD2/PresGen/projects/logicmoo-video-1/videos/s36.png</property>
</producer>
<producer id="producer112" in="0:00:00" out="0:00:01.985317">
<property name="mlt_service">avformat</property>
<property name="resource">/media/andrewdo/SSD2/PresGen/projects/logicmoo-video-1/videos/s36-37.mp4</property>
</producer>
<producer id="producer113" in="0:00:00" out="0:00:18.368350">
<property name="mlt_service">qimage</property>
<property name="resource">/media/andrewdo/SSD2/PresGen/projects/logicmoo-video-1/videos/s37.png</property>
</producer>
<producer id="producer114" in="0:00:00" out="0:00:01.985317">
<property name="mlt_service">avformat</property>
<property name="resource">/media/andrewdo/SSD2/PresGen/projects/logicmoo-video-1/videos/s37-38.mp4</property>
</producer>
<producer id="producer115" in="0:00:00" out="0:00:03.837167">
<property name="mlt_service">qimage</property>
<property name="resource">/media/andrewdo/SSD2/PresGen/projects/logicmoo-video-1/videos/s38.png</property>
</producer>
<producer id="producer116" in="0:00:00" out="0:00:01.985317">
<property name="mlt_service">avformat</property>
<property name="resource">/media/andrewdo/SSD2/PresGen/projects/logicmoo-video-1/videos/s38-39.mp4</property>
</producer>
<producer id="producer117" in="0:00:00" out="0:00:12.962950">
<property name="mlt_service">qimage</property>
<property name="resource">/media/andrewdo/SSD2/PresGen/projects/logicmoo-video-1/videos/s39.png</property>
</producer>
<producer id="producer118" in="0:00:00" out="0:00:01.985317">
<property name="mlt_service">avformat</property>
<property name="resource">/media/andrewdo/SSD2/PresGen/projects/logicmoo-video-1/videos/s39-40.mp4</property>
</producer>
<producer id="producer119" in="0:00:00" out="0:00:00.550550">
<property name="mlt_service">qimage</property>
<property name="resource">/media/andrewdo/SSD2/PresGen/projects/logicmoo-video-1/videos/s40.png</property>
</producer>
<producer id="producer120" in="0:00:00" out="0:00:01.985317">
<property name="mlt_service">avformat</property>
<property name="resource">/media/andrewdo/SSD2/PresGen/projects/logicmoo-video-1/videos/s40-41.mp4</property>
</producer>
<producer id="producer121" in="0:00:00" out="0:00:00.016683">
<property name="mlt_service">qimage</property>
<property name="resource">/media/andrewdo/SSD2/PresGen/projects/logicmoo-video-1/videos/s41.png</property>
</producer>
<producer id="producer122" in="0:00:00" out="0:00:01.968633">
<property name="mlt_service">avformat</property>
<property name="resource">/media/andrewdo/SSD2/PresGen/projects/logicmoo-video-1/videos/s41-42.mp4</property>
</producer>
<producer id="unsupported" in="0" out="10000">
<property name="mlt_service">qtext</property>
<property name="family">Courier</property>
<property name="fgcolour">#ff808080</property>
<property name="bgcolour">#00000000</property>
<property name="text">Unsupported clip type</property>
</producer>
<playlist id="main_bin">
<property name="kdenlive:docproperties.decimalPoint">.</property>
<property name="kdenlive:docproperties.version">0.98</property>
<property name="xml_retain">1</property>
<entry producer="producer0" />
<entry producer="producer1" />
<entry producer="producer2" />
<entry producer="producer3" />
<entry producer="producer4" />
<entry producer="producer5" />
<entry producer="producer6" />
<entry producer="producer7" />
<entry producer="producer8" />
<entry producer="producer9" />
<entry producer="producer10" />
<entry producer="producer11" />
<entry producer="producer12" />
<entry producer="producer13" />
<entry producer="producer14" />
<entry producer="producer15" />
<entry producer="producer16" />
<entry producer="producer17" />
<entry producer="producer18" />
<entry producer="producer19" />
<entry producer="producer20" />
<entry producer="producer21" />
<entry producer="producer22" />
<entry producer="producer23" />
<entry producer="producer24" />
<entry producer="producer25" />
<entry producer="producer26" />
<entry producer="producer27" />
<entry producer="producer28" />
<entry producer="producer29" />
<entry producer="producer30" />
<entry producer="producer31" />
<entry producer="producer32" />
<entry producer="producer33" />
<entry producer="producer34" />
<entry producer="producer35" />
<entry producer="producer36" />
<entry producer="producer37" />
<entry producer="producer38" />
<entry producer="producer39" />
<entry producer="producer40" />
<entry producer="producer41" />
<entry producer="producer42" />
<entry producer="producer43" />
<entry producer="producer44" />
<entry producer="producer45" />
<entry producer="producer46" />
<entry producer="producer47" />
<entry producer="producer48" />
<entry producer="producer49" />
<entry producer="producer50" />
<entry producer="producer51" />
<entry producer="producer52" />
<entry producer="producer53" />
<entry producer="producer54" />
<entry producer="producer55" />
<entry producer="producer56" />
<entry producer="producer57" />
<entry producer="producer58" />
<entry producer="producer59" />
<entry producer="producer60" />
<entry producer="producer61" />
<entry producer="producer62" />
<entry producer="producer63" />
<entry producer="producer64" />
<entry producer="producer65" />
<entry producer="producer66" />
<entry producer="producer67" />
<entry producer="producer68" />
<entry producer="producer69" />
<entry producer="producer70" />
<entry producer="producer71" />
<entry producer="producer72" />
<entry producer="producer73" />
<entry producer="producer74" />
<entry producer="producer75" />
<entry producer="producer76" />
<entry producer="producer77" />
<entry producer="producer78" />
<entry producer="producer79" />
<entry producer="producer80" />
<entry producer="producer81" />
<entry producer="producer82" />
<entry producer="producer83" />
<entry producer="producer84" />
<entry producer="producer85" />
<entry producer="producer86" />
<entry producer="producer87" />
<entry producer="producer88" />
<entry producer="producer89" />
<entry producer="producer90" />
<entry producer="producer91" />
<entry producer="producer92" />
<entry producer="producer93" />
<entry producer="producer94" />
<entry producer="producer95" />
<entry producer="producer96" />
<entry producer="producer97" />
<entry producer="producer98" />
<entry producer="producer99" />
<entry producer="producer100" />
<entry producer="producer101" />
<entry producer="producer102" />
<entry producer="producer103" />
<entry producer="producer104" />
<entry producer="producer105" />
<entry producer="producer106" />
<entry producer="producer107" />
<entry producer="producer108" />
<entry producer="producer109" />
<entry producer="producer110" />
<entry producer="producer111" />
<entry producer="producer112" />
<entry producer="producer113" />
<entry producer="producer114" />
<entry producer="producer115" />
<entry producer="producer116" />
<entry producer="producer117" />
<entry producer="producer118" />
<entry producer="producer119" />
<entry producer="producer120" />
<entry producer="producer121" />
<entry producer="producer122" />
<entry producer="unsupported" />
</playlist>
<producer id="black_track">
<property name="resource">black</property>
<property name="mlt_service">color</property>
</producer>
<playlist id="playlist1_1">
<property name="kdenlive:audio_track">1</property>
<entry in="0:00:00" out="0:00:00.767433" producer="producer0" />
<entry in="0:00:00" out="0:00:03.586917" producer="producer1" />
<entry in="0:00:00" out="0:00:12.045367" producer="producer2" />
<entry in="0:00:00" out="0:00:23.173150" producer="producer3" />
<entry in="0:00:00" out="0:00:10.126783" producer="producer4" />
<entry in="0:00:00" out="0:00:17.400717" producer="producer5" />
<entry in="0:00:00" out="0:00:18.868850" producer="producer6" />
<entry in="0:00:00" out="0:00:11.027683" producer="producer7" />
<entry in="0:00:00" out="0:00:19.035683" producer="producer8" />
<entry in="0:00:00" out="0:00:11.327983" producer="producer9" />
<entry in="0:00:00" out="0:00:08.925583" producer="producer10" />
<entry in="0:00:00" out="0:00:23.106417" producer="producer11" />
<entry in="0:00:00" out="0:00:13.496817" producer="producer12" />
<entry in="0:00:00" out="0:00:21.438083" producer="producer13" />
<entry in="0:00:00" out="0:00:09.092417" producer="producer14" />
<entry in="0:00:00" out="0:00:15.248567" producer="producer15" />
<entry in="0:00:00" out="0:00:19.436083" producer="producer16" />
<entry in="0:00:00" out="0:00:04.437767" producer="producer17" />
<entry in="0:00:00" out="0:00:04.988317" producer="producer18" />
<entry in="0:00:00" out="0:00:21.955267" producer="producer19" />
<entry in="0:00:00" out="0:00:04.087417" producer="producer20" />
<entry in="0:00:00" out="0:00:20.253567" producer="producer21" />
<entry in="0:00:00" out="0:00:10.110100" producer="producer22" />
<entry in="0:00:00" out="0:00:01.117783" producer="producer23" />
<entry in="0:00:00" out="0:00:21.254567" producer="producer24" />
<entry in="0:00:00" out="0:00:11.945267" producer="producer25" />
<entry in="0:00:00" out="0:00:05.672333" producer="producer26" />
<entry in="0:00:00" out="0:00:14.864850" producer="producer27" />
<entry in="0:00:00" out="0:00:27.394033" producer="producer28" />
<entry in="0:00:00" out="0:00:10.126783" producer="producer29" />
<entry in="0:00:00" out="0:00:12.729383" producer="producer30" />
<entry in="0:00:00" out="0:00:06.856850" producer="producer31" />
<entry in="0:00:00" out="0:00:13.430083" producer="producer32" />
<entry in="0:00:00" out="0:00:03.737067" producer="producer33" />
<entry in="0:00:00" out="0:00:01.184517" producer="producer34" />
<entry in="0:00:00" out="0:00:02.252250" producer="producer35" />
<entry in="0:00:00" out="0:00:20.353667" producer="producer36" />
<entry in="0:00:00" out="0:00:05.822483" producer="producer37" />
<entry in="0:00:00" out="0:00:14.948267" producer="producer38" />
<entry in="0:00:00" out="0:00:02.535867" producer="producer39" />
<entry in="0:00:00" out="0:00:00.617283" producer="producer40" />
</playlist>
<playlist id="playlist1_2">
<property name="kdenlive:audio_track">1</property>
</playlist>
<tractor id="tractor1">
<property name="kdenlive:track_name" />
<track hide="video" producer="playlist1_1" />
<track hide="video" producer="playlist1_2" />
<property name="kdenlive:audio_track">1</property>
</tractor>
<playlist id="playlist2_1">
<property name="kdenlive:audio_track">1</property>
</playlist>
<playlist id="playlist2_2">
<property name="kdenlive:audio_track">1</property>
</playlist>
<tractor id="tractor2">
<property name="kdenlive:track_name" />
<track hide="video" producer="playlist2_1" />
<track hide="video" producer="playlist2_2" />
<property name="kdenlive:audio_track">1</property>
</tractor>
<playlist id="playlist3_1">
<entry in="0:00:00" out="0:00:00.016683" producer="producer41" />
<blank length="0:00:00.750750" />
<entry in="0:00:00" out="0:00:02.002000" producer="producer42" />
<entry in="0:00:00" out="0:00:01.601600" producer="producer43" />
<blank length="0:00:04.004000" />
<entry in="0:00:00" out="0:00:01.968633" producer="producer44" />
<entry in="0:00:00" out="0:00:10.060050" producer="producer45" />
<blank length="0:00:05.989317" />
<entry in="0:00:00" out="0:00:01.985317" producer="producer46" />
<entry in="0:00:00" out="0:00:21.187833" producer="producer47" />
<blank length="0:00:07.991317" />
<entry in="0:00:00" out="0:00:01.985317" producer="producer48" />
<entry in="0:00:00" out="0:00:08.141467" producer="producer49" />
<blank length="0:00:09.993317" />
<entry in="0:00:00" out="0:00:01.985317" producer="producer50" />
<entry in="0:00:00" out="0:00:15.415400" producer="producer51" />
<blank length="0:00:11.995317" />
<entry in="0:00:00" out="0:00:01.985317" producer="producer52" />
<entry in="0:00:00" out="0:00:16.883533" producer="producer53" />
<blank length="0:00:13.997317" />
<entry in="0:00:00" out="0:00:01.985317" producer="producer54" />
<entry in="0:00:00" out="0:00:09.042367" producer="producer55" />
<blank length="0:00:15.999317" />
<entry in="0:00:00" out="0:00:01.985317" producer="producer56" />
<entry in="0:00:00" out="0:00:17.050367" producer="producer57" />
<blank length="0:00:18.001317" />
<entry in="0:00:00" out="0:00:01.985317" producer="producer58" />
<entry in="0:00:00" out="0:00:09.342667" producer="producer59" />
<blank length="0:00:20.003317" />
<entry in="0:00:00" out="0:00:01.985317" producer="producer60" />
<entry in="0:00:00" out="0:00:06.940267" producer="producer61" />
<blank length="0:00:22.005317" />
<entry in="0:00:00" out="0:00:01.985317" producer="producer62" />
<entry in="0:00:00" out="0:00:21.121100" producer="producer63" />
<blank length="0:00:24.007317" />
<entry in="0:00:00" out="0:00:01.985317" producer="producer64" />
<entry in="0:00:00" out="0:00:11.511500" producer="producer65" />
<blank length="0:00:26.009317" />
<entry in="0:00:00" out="0:00:01.985317" producer="producer66" />
<entry in="0:00:00" out="0:00:19.452767" producer="producer67" />
<blank length="0:00:27.994633" />
<entry in="0:00:00" out="0:00:01.985317" producer="producer68" />
<entry in="0:00:00" out="0:00:07.107100" producer="producer69" />
<blank length="0:00:29.996633" />
<entry in="0:00:00" out="0:00:01.968633" producer="producer70" />
<entry in="0:00:00" out="0:00:13.263250" producer="producer71" />
<blank length="0:00:31.981950" />
<entry in="0:00:00" out="0:00:01.985317" producer="producer72" />
<entry in="0:00:00" out="0:00:17.450767" producer="producer73" />
<blank length="0:00:33.983950" />
<entry in="0:00:00" out="0:00:01.985317" producer="producer74" />
<entry in="0:00:00" out="0:00:02.452450" producer="producer75" />
<blank length="0:00:35.985950" />
<entry in="0:00:00" out="0:00:01.985317" producer="producer76" />
<entry in="0:00:00" out="0:00:03.003000" producer="producer77" />
<blank length="0:00:37.987950" />
<entry in="0:00:00" out="0:00:01.985317" producer="producer78" />
<entry in="0:00:00" out="0:00:19.969950" producer="producer79" />
<blank length="0:00:39.989950" />
<entry in="0:00:00" out="0:00:01.985317" producer="producer80" />
<entry in="0:00:00" out="0:00:02.102100" producer="producer81" />
<blank length="0:00:41.991950" />
<entry in="0:00:00" out="0:00:01.985317" producer="producer82" />
<entry in="0:00:00" out="0:00:18.268250" producer="producer83" />
<blank length="0:00:43.993950" />
<entry in="0:00:00" out="0:00:01.985317" producer="producer84" />
<entry in="0:00:00" out="0:00:08.124783" producer="producer85" />
<blank length="0:00:45.995950" />
<entry in="0:00:00" out="0:00:01.985317" producer="producer86" />
<entry in="0:00:00" out="0:00:00.016683" producer="producer87" />
<blank length="0:00:47.113733" />
<entry in="0:00:00" out="0:00:01.985317" producer="producer88" />
<entry in="0:00:00" out="0:00:19.269250" producer="producer89" />
<blank length="0:00:49.999950" />
<entry in="0:00:00" out="0:00:01.985317" producer="producer90" />
<entry in="0:00:00" out="0:00:09.959950" producer="producer91" />
<blank length="0:00:52.001950" />
<entry in="0:00:00" out="0:00:01.985317" producer="producer92" />
<entry in="0:00:00" out="0:00:03.687017" producer="producer93" />
<blank length="0:00:54.003950" />
<entry in="0:00:00" out="0:00:01.985317" producer="producer94" />
<entry in="0:00:00" out="0:00:12.879533" producer="producer95" />
<blank length="0:00:56.005950" />
<entry in="0:00:00" out="0:00:01.985317" producer="producer96" />
<entry in="0:00:00" out="0:00:25.408717" producer="producer97" />
<blank length="0:00:58.007950" />
<entry in="0:00:00" out="0:00:01.985317" producer="producer98" />
<entry in="0:00:00" out="0:00:08.141467" producer="producer99" />
<blank length="0:01:00.009950" />
<entry in="0:00:00" out="0:00:01.985317" producer="producer100" />
<entry in="0:00:00" out="0:00:10.744067" producer="producer101" />
<blank length="0:01:02.011950" />
<entry in="0:00:00" out="0:00:01.985317" producer="producer102" />
<entry in="0:00:00" out="0:00:04.871533" producer="producer103" />
<blank length="0:01:04.013950" />
<entry in="0:00:00" out="0:00:01.985317" producer="producer104" />
<entry in="0:00:00" out="0:00:11.444767" producer="producer105" />
<blank length="0:01:06.015950" />
<entry in="0:00:00" out="0:00:01.985317" producer="producer106" />
<entry in="0:00:00" out="0:00:01.751750" producer="producer107" />
<blank length="0:01:08.017950" />
<entry in="0:00:00" out="0:00:01.985317" producer="producer108" />
<entry in="0:00:00" out="0:00:00.016683" producer="producer109" />
<blank length="0:01:09.202467" />
<entry in="0:00:00" out="0:00:01.985317" producer="producer110" />
<entry in="0:00:00" out="0:00:00.266933" producer="producer111" />
<blank length="0:01:12.021950" />
<entry in="0:00:00" out="0:00:01.985317" producer="producer112" />
<entry in="0:00:00" out="0:00:18.368350" producer="producer113" />
<blank length="0:01:14.023950" />
<entry in="0:00:00" out="0:00:01.985317" producer="producer114" />
<entry in="0:00:00" out="0:00:03.837167" producer="producer115" />
<blank length="0:01:16.025950" />
<entry in="0:00:00" out="0:00:01.985317" producer="producer116" />
<entry in="0:00:00" out="0:00:12.962950" producer="producer117" />
<blank length="0:01:18.027950" />
<entry in="0:00:00" out="0:00:01.985317" producer="producer118" />
<entry in="0:00:00" out="0:00:00.550550" producer="producer119" />
<blank length="0:01:20.029950" />
<entry in="0:00:00" out="0:00:01.985317" producer="producer120" />
<entry in="0:00:00" out="0:00:00.016683" producer="producer121" />
<blank length="0:01:20.647233" />
<entry in="0:00:00" out="0:00:01.968633" producer="producer122" />
</playlist>
<playlist id="playlist3_2" />
<tractor id="tractor3">
<property name="kdenlive:track_name" />
<track hide="audio" producer="playlist3_1" />
<track hide="audio" producer="playlist3_2" />
</tractor>
<playlist id="playlist4_1" />
<playlist id="playlist4_2" />
<tractor id="tractor4">
<property name="kdenlive:track_name" />
<track hide="audio" producer="playlist4_1" />
<track hide="audio" producer="playlist4_2" />
</tractor>
<tractor global_feed="1">
<track producer="black_track" />
<track producer="tractor1" />
<track producer="tractor2" />
<track producer="tractor3" />
<track producer="tractor4" />
</tractor>
</mlt>